<svg width="14" height="14" viewBox="0 0 14 14" fill="none" xmlns="http://www.w3.org/2000/svg">
<path d="M6.99998 8.85223L2.32598 13.526C2.07681 13.7753 1.76814 13.9 1.39998 13.9C1.03181 13.9 0.723142 13.7753 0.473976 13.526C0.224642 13.2768 0.0999756 12.9681 0.0999756 12.6C0.0999756 12.2318 0.224642 11.9231 0.473976 11.674L5.14773 6.99998L0.473976 2.32598C0.224642 2.07681 0.0999756 1.76814 0.0999756 1.39998C0.0999756 1.03181 0.224642 0.723143 0.473976 0.473976C0.723142 0.224643 1.03181 0.0999756 1.39998 0.0999756C1.76814 0.0999756 2.07681 0.224643 2.32598 0.473976L6.99998 5.14773L11.674 0.473976C11.9231 0.224643 12.2318 0.0999756 12.6 0.0999756C12.9681 0.0999756 13.2768 0.224643 13.526 0.473976C13.7753 0.723143 13.9 1.03181 13.9 1.39998C13.9 1.76814 13.7753 2.07681 13.526 2.32598L8.85223 6.99998L13.526 11.674C13.7753 11.9231 13.9 12.2318 13.9 12.6C13.9 12.9681 13.7753 13.2768 13.526 13.526C13.2768 13.7753 12.9681 13.9 12.6 13.9C12.2318 13.9 11.9231 13.7753 11.674 13.526L6.99998 8.85223Z" fill="#252525"/>
</svg>
