<svg width="24" height="24" viewBox="0 0 24 24" fill="none" xmlns="http://www.w3.org/2000/svg">
<path d="M12 11.7597C10.7586 11.7597 9.70155 11.3233 8.82872 10.4505C7.95589 9.57766 7.51947 8.52057 7.51947 7.27924C7.51947 6.0379 7.95589 4.98324 8.82872 4.11524C9.70155 3.24707 10.7586 2.81299 12 2.81299C13.2413 2.81299 14.2984 3.24707 15.1712 4.11524C16.0441 4.98324 16.4805 6.0379 16.4805 7.27924C16.4805 8.52057 16.0441 9.57766 15.1712 10.4505C14.2984 11.3233 13.2413 11.7597 12 11.7597ZM3.51947 18.0707V17.412C3.51947 16.7577 3.6898 16.1562 4.03047 15.6077C4.37097 15.0594 4.82347 14.6409 5.38797 14.3522C6.44964 13.8261 7.53239 13.4292 8.63622 13.1615C9.74022 12.8937 10.8615 12.7597 12 12.7597C13.1565 12.7597 14.2869 12.8912 15.3912 13.1542C16.4956 13.4174 17.5691 13.812 18.612 14.338C19.1765 14.6253 19.629 15.0419 19.9695 15.5877C20.3101 16.1336 20.4805 16.7417 20.4805 17.412V18.0707C20.4805 18.8091 20.2234 19.4353 19.7092 19.9495C19.1951 20.4637 18.5688 20.7207 17.8305 20.7207H6.16947C5.43114 20.7207 4.80489 20.4637 4.29072 19.9495C3.77655 19.4353 3.51947 18.8091 3.51947 18.0707ZM6.16947 18.0707H17.8305V17.4825C17.8305 17.3083 17.7846 17.15 17.693 17.0075C17.6013 16.865 17.4805 16.7542 17.3305 16.675C16.487 16.2627 15.621 15.9487 14.7325 15.7332C13.8441 15.5176 12.9333 15.4097 12 15.4097C11.0855 15.4097 10.1746 15.5176 9.26747 15.7332C8.36014 15.9487 7.49414 16.2627 6.66947 16.675C6.51947 16.7542 6.39864 16.865 6.30697 17.0075C6.2153 17.15 6.16947 17.3083 6.16947 17.4825V18.0707ZM11.9995 9.10974C12.5026 9.10974 12.9336 8.93057 13.2925 8.57224C13.6511 8.21391 13.8305 7.78307 13.8305 7.27974C13.8305 6.77657 13.6513 6.34799 13.293 5.99399C12.9345 5.63999 12.5036 5.46299 12.0005 5.46299C11.4973 5.46299 11.0663 5.64082 10.7075 5.99649C10.3488 6.35215 10.1695 6.77974 10.1695 7.27924C10.1695 7.78257 10.3486 8.21349 10.707 8.57199C11.0655 8.93049 11.4963 9.10974 11.9995 9.10974Z" fill="white"/>
</svg>
